PathFileType	4	(X/Y/Z)	C:/Users/opensim2020/Desktop/walking_exp_matlab/subject01_walking13_straight_04.trc																																																																																																																												
DataRate	CameraRate	NumFrames	NumMarkers	Units	OrigDataRate	OrigDataStartFrame	OrigNumFrames																																																																																																																								
100	100	4	42	mm	100	2176	135																																																																																																																								
Frame#	Time	LFHD			RFHD			LBHD			RBHD			C7			T10			CLAV			STRN			RBAK			LSHO			LUPA			LELB			LFRM			LWRA			LWRB			LFIN			RSHO			RUPA			RELB			RFRM			RWRA			RWRB			RFIN			LASI			RASI			LPSI			RPSI			LTHI			LKNE			LTIB			LANK			LHEE			LTOE			RTHI			RKNE			RTIB			RANK			RHEE			RTOE			*39			*40			*41		
		X1	Y1	Z1	X2	Y2	Z2	X3	Y3	Z3	X4	Y4	Z4	X5	Y5	Z5	X6	Y6	Z6	X7	Y7	Z7	X8	Y8	Z8	X9	Y9	Z9	X10	Y10	Z10	X11	Y11	Z11	X12	Y12	Z12	X13	Y13	Z13	X14	Y14	Z14	X15	Y15	Z15	X16	Y16	Z16	X17	Y17	Z17	X18	Y18	Z18	X19	Y19	Z19	X20	Y20	Z20	X21	Y21	Z21	X22	Y22	Z22	X23	Y23	Z23	X24	Y24	Z24	X25	Y25	Z25	X26	Y26	Z26	X27	Y27	Z27	X28	Y28	Z28	X29	Y29	Z29	X30	Y30	Z30	X31	Y31	Z31	X32	Y32	Z32	X33	Y33	Z33	X34	Y34	Z34	X35	Y35	Z35	X36	Y36	Z36	X37	Y37	Z37	X38	Y38	Z38	X39	Y39	Z39	X40	Y40	Z40	X41	Y41	Z41	X42	Y42	Z42
																																																																																																																															
68	0.67	-111.6834	1654.97827	-1509.69446	-96.66443	1658.57434	-1397.36084	-229.31033	1614.94128	-1500.8811	-216.39272	1617.33167	-1380.96008	-273.39752	1418.18921	-1459.26416	-304.72516	1122.76111	-1454.92578	-126.85545	1353.05676	-1456.49487	-80.2999	1201.31299	-1468.84973	-325.48077	1219.23132	-1387.95862	-189.06465	1385.14722	-1617.1405	-209.70544	1213.80383	-1717.86487	-199.8149	1064.84717	-1751.30969	-92.58537	1011.14661	-1764.36914	39.84151	990.42096	-1730.81079	10.43555	947.151	-1759.21509	92.08492	940.31976	-1767.96997	-194.77252	1375.22681	-1304.66968	-285.84616	1186.41858	-1215.35522	-310.3717	1065.90161	-1211.56311	-316.68256	947.17706	-1179.92834	-269.03662	813.77155	-1193.02148	-315.48117	825.55048	-1159.29688	-293.0549	746.64441	-1148.52478	-132.62877	916.58673	-1576.74963	-106.22534	926.05078	-1363.78931	-311.60864	935.03473	-1503.63403	-290.81863	937.61041	-1358.52063	-226.75826	587.6236	-1638.38513	-267.88177	457.56461	-1633.38281	-422.15091	348.55804	-1633.83264	-580.97064	197.48441	-1583.79236	-612.2005	225.01868	-1527.83972	-564.48529	48.89285	-1562.57214	-78.59696	601.7677	-1306.34058	-32.74987	452.39175	-1342.63757	-62.78426	277.17923	-1331.33777	-74.34761	74.00676	-1380.60217	-127.63794	36.05335	-1425.14551	64.94963	36.43654	-1394.12183	-107.46278	1692.50671	-1419.27136	-1973.06982	1023.44495	3101.8689	-2012.59644	1022.05664	3140.59961
69	0.68	-97.65642	1656.3468	-1507.20178	-82.86812	1659.31775	-1394.82556	-215.31715	1616.2373	-1498.97778	-202.56677	1617.92944	-1378.88171	-259.48843	1419.4574	-1457.93469	-291.23849	1124.04199	-1454.12756	-113.01607	1354.19104	-1455.55859	-66.34581	1202.51306	-1468.10547	-311.5592	1220.48193	-1386.56433	-175.69348	1386.51453	-1616.11755	-197.96933	1215.16626	-1716.77539	-190.68364	1065.8634	-1749.37878	-84.86037	1009.31073	-1762.81702	47.22219	985.16797	-1729.79211	16.43067	942.57697	-1757.83801	97.80861	933.17743	-1766.77466	-180.45081	1376.38477	-1303.50562	-270.41702	1186.91711	-1214.24561	-293.98804	1066.09375	-1210.95667	-298.61426	946.75037	-1179.96643	-249.12613	814.24719	-1194.23059	-295.45126	825.19031	-1160.10168	-271.80542	746.72882	-1149.94031	-118.56547	917.94727	-1575.62439	-93.06732	927.31989	-1362.54639	-297.61563	935.34198	-1503.30273	-277.42822	938.96698	-1358.12585	-205.83362	586.21753	-1638.6095	-242.08409	455.51382	-1634.54785	-397.34439	349.27063	-1636.12561	-560.13715	205.3844	-1584.55811	-589.78217	234.80717	-1529.29834	-552.1554	55.76445	-1563.77319	-69.67532	601.82751	-1305.74426	-25.50527	451.62241	-1341.47302	-58.21385	276.81439	-1331.41541	-74.00725	74.09313	-1380.67102	-127.41068	36.40759	-1425.01953	65.42441	35.89072	-1394.24243	-94.00694	1693.30164	-1416.49927	-1973.02283	1023.95789	3102.0481	-2012.59839	1022.1778	3140.70874
70	0.69	-83.51178	1657.82532	-1504.89087	-69.09418	1659.97815	-1392.37378	-201.13963	1617.62476	-1497.1333	-188.7905	1618.62793	-1377.07776	-245.45616	1421.01526	-1456.70178	-277.78586	1125.44238	-1453.23181	-99.39696	1355.36768	-1454.77869	-52.84412	1203.65588	-1467.49548	-297.81863	1221.9425	-1384.82471	-162.43216	1387.90295	-1615.23743	-186.35826	1216.59302	-1715.96729	-181.85437	1066.89758	-1747.43152	-77.57976	1007.17401	-1761.18384	54.10501	979.59729	-1728.81702	21.83826	937.7594	-1756.4209	102.8961	925.73883	-1765.59644	-166.23288	1377.56177	-1302.64026	-255.06459	1187.67102	-1213.01135	-277.73624	1066.36987	-1210.29443	-280.52469	946.44958	-1180.00537	-228.86925	814.93359	-1195.55469	-275.11414	824.98853	-1161.00525	-249.86658	746.86078	-1151.5614	-105.03497	919.25659	-1574.92578	-80.13431	928.46906	-1361.44189	-283.97549	935.56323	-1502.93054	-264.60229	940.01843	-1357.69336	-182.7975	585.56787	-1638.61133	-215.92244	453.89944	-1635.37683	-372.22281	350.08545	-1638.21741	-538.7226	212.64923	-1584.34729	-566.81677	242.74577	-1528.54895	-537.14038	61.76532	-1565.79297	-62.46881	601.55182	-1305.17261	-18.938	451.11752	-1340.55103	-54.68929	276.8147	-1331.08008	-73.50718	74.19559	-1380.75891	-127.24404	36.7946	-1425.01782	65.86423	35.48265	-1394.44324	-80.21853	1694.10193	-1413.84888	-1973.24768	1023.52258	3102.00977	-2012.58472	1022.09314	3140.74316
71	0.7	-69.30252	1659.22168	-1502.755	-55.03161	1660.83325	-1390.16541	-186.99873	1619.1759	-1495.55835	-174.98581	1619.47009	-1375.43542	-231.5351	1422.56714	-1455.57324	-264.29565	1126.88599	-1452.29919	-85.75837	1356.85352	-1454.45374	-39.63428	1204.75732	-1466.99841	-284.24225	1223.64209	-1383.10803	-149.24216	1389.40076	-1614.61609	-175.10658	1218.10852	-1715.12061	-173.11549	1067.74805	-1745.23755	-70.74386	1004.86499	-1759.54626	60.51678	973.80835	-1727.87292	26.75946	932.83105	-1755.00684	107.39941	918.06207	-1764.36926	-151.93607	1378.73804	-1301.95886	-239.70879	1188.52588	-1211.69226	-261.65762	1066.68799	-1209.58447	-262.24365	946.28009	-1180.02759	-208.21237	815.85364	-1196.92273	-254.38617	824.8501	-1161.83423	-227.81009	747.16479	-1153.09412	-91.6842	920.70428	-1574.40344	-67.30773	929.64972	-1360.46106	-270.60913	935.73108	-1502.58972	-252.11531	940.97943	-1357.35706	-160.62065	585.24304	-1638.78821	-189.94904	452.97012	-1636.10376	-346.80502	350.89407	-1639.92493	-516.96283	219.34816	-1583.27539	-543.98492	248.82661	-1526.02063	-518.18127	68.35394	-1568.69836	-55.81269	601.20581	-1304.65112	-12.77419	450.48392	-1339.84058	-51.32116	276.694	-1330.48108	-73.12741	74.1746	-1380.89966	-127.10563	37.01647	-1425.09326	66.12624	35.11332	-1394.58655	-66.11581	1695.00293	-1411.34131	-1973.03906	1023.41132	3101.93994	-2012.43445	1022.0152	3140.76221
